<?xml version="1.0" encoding="utf-8"?>
<!-- Generator: Adobe Illustrator 22.1.0, SVG Export Plug-In . SVG Version: 6.00 Build 0)  -->
<svg version="1.1" id="Layer_1" xmlns="http://www.w3.org/2000/svg" xmlns:xlink="http://www.w3.org/1999/xlink" x="0px" y="0px"
	 viewBox="0 0 788 199" style="enable-background:new 0 0 788 199;" xml:space="preserve">
<style type="text/css">
	.st0{fill:#D72E18;}
	.st1{fill:#FFFFFF;}
	.st2{clip-path:url(#SVGID_2_);fill:#D72E18;}
	.st3{clip-path:url(#SVGID_4_);fill:#D72E18;}
</style>
<path class="st0" d="M247,136.5c0,15.2-18.8,27.5-42,27.5s-42-12.3-42-27.5s18.8-27.5,42-27.5S247,121.3,247,136.5"/>
<path class="st1" d="M26,9c18,0,37,2,55,3c13,1,25-1,38-2c19-2,38-5,56-10c-6,10-10,21-14,33c-4,17-9,34-15,50c0-16-8-31-16-45
	c-3-5-8-8-12-11c-11-6-25-1-34,7C71,47,66,64,62,81c10,0,20,1,30,0c12-2,22-11,30-19c-8,17-14,34-23,50c-2,4-2,8-4,11
	c-4-18-23-25-39-28c-3,18-7,37-5,55c1,15,7,29,17,40c-22-7-46-2-68,3c8-8,14-18,16-29c1-12,3-22,4-34c6-34,13-66,16-99
	C33,23,32,15,26,9"/>
<path class="st1" d="M174,82c4-9,7-19,14-26c12-11,27-17,43-16c15,2,29,10,37,23c4,18,2,36-1,54c-1,4-3,9-3,13c0,5-2,11,1,16
	c5,8,13,14,23,13c-4,9-9,17-17,23c-9-4-18-9-24-18c-1-2-2-5-2-4c-18,15-39,27-62,25c-13-2-27-8-33-20c-12-24,4-54,29-62
	c20-6,47-6,60,13c3-17,14-40-2-54c-6-4-14-4-20,1c-6,7-7,20,2,24c-18,2-37,0-55,5L174,82z M206,115c-13,1-26,9-31,21c-3,9,0,19,9,23
	c7,3,14,3,21,0c12-6,25-17,24-32C224,119,215,116,206,115"/>
<path class="st1" d="M298,65c17,1,33-2,49-5c-8,10-8,22-10,34c10-7,19-13,30-19c2-2,4-4,6-5c6-2,10-7,16-9c9-2,17,4,21,12
	c7,17,5,36,0,54c-18,4-36,3-54,3c2-1,4-1,5-2c2-2,4-3,7-5c6-5,11-11,11-18c1-4-1-9-6-11c-14-4-27,6-36,15c-4,21-10,42-8,63
	c0,9,6,17,13,23c-17-3-35,1-52,4c5-8,7-18,9-27c4-28,10-55,11-83C310,80,304,72,298,65"/>
<path class="st1" d="M428,65c16,1,32-1,48-5c-7,10-7,22-10,34c17-12,34-23,52-32c7-3,14,1,19,7c12,18,6,39,3,58c-18,4-36,3-54,3
	c12-6,28-18,21-32c-4-9-16-5-24-2c-1,1-3,2-5,3c-4,4-8,7-12,10c-3,20-9,39-9,59c1,11,7,19,14,27c-17-3-35,1-52,4c8-14,10-31,12-48
	c3-22,9-43,8-65C438,78,432,72,428,65"/>
<path class="st1" d="M578,82c1-2,2-3,3-5v-3c1-2,2-4,3-7c8-16,25-24,42-27c16-2,32,4,41,17c16,22,4,49,1,73c0,4-1,9,0,13
	c2,4,5,9,9,12c5,3,10,5,16,4c-5,8-10,16-17,23c-11-4-23-12-27-23c-3,1-4,4-6,6c-7,7-15,11-24,15c-10,4-21,6-32,5c-9-1-17-5-25-10
	c-13-10-14-27-9-42c6-18,21-29,39-32s40-2,51,15c3-17,14-40-2-54c-7-5-17-3-22,4s-4,18,5,21c-19,2-38,0-56,5L578,82z M611,115
	c-10,1-19,4-26,12c-9,10-10,26,4,32c6,3,14,3,20,0c12-6,29-19,23-35C626,119,619,116,611,115"/>
<g>
	<g>
		<g>
			<defs>
				<rect id="SVGID_1_" x="699.7" y="148" width="38.2" height="33.4"/>
			</defs>
			<clipPath id="SVGID_2_">
				<use xlink:href="#SVGID_1_"  style="overflow:visible;"/>
			</clipPath>
			<path class="st2" d="M737,154c3,9-2,19-9,24c-9,5-26,6-28-7c-3-16,14-22,27-23C731,148,734,151,737,154"/>
		</g>
	</g>
</g>
<g>
	<g>
		<g>
			<defs>
				<rect id="SVGID_3_" x="710.9" y="1.9" width="76.6" height="131.8"/>
			</defs>
			<clipPath id="SVGID_4_">
				<use xlink:href="#SVGID_3_"  style="overflow:visible;"/>
			</clipPath>
			<path class="st3" d="M728.8,1.9c3.2,0.9,6.3,1.5,9.2,2c2.9,0.4,5.5,0.8,7.8,1.2c2.6,0.4,5,0.6,7.3,0.8c2.4,0.2,5.3,0.4,8.6,0.5
				c3,0.2,6.6,0.3,10.8,0.3h15.1c-6.8,12.1-12.4,22.4-16.7,30.8s-7.8,15.3-10.3,20.7c-2.8,6.3-5,11.5-6.4,15.6
				c-1.3,4.1-2.8,9-4.7,14.8c-1.6,5.1-3.7,11.4-6.3,18.8s-5.6,16.2-9,26.4l-23.1-1.1c2.7-9.3,4.8-17.3,6.3-23.9s2.7-12.1,3.6-16.5
				c1.1-5.1,1.8-9.3,2.3-12.7c0.5-3.5,1-8.8,1.4-15.8c0.5-5.8,1-13.7,1.7-23.6C727,30.1,727.8,17.4,728.8,1.9"/>
		</g>
	</g>
</g>
</svg>
